<svg viewBox="0 0 400 300" xmlns="http://www.w3.org/2000/svg">
  <defs>
    <linearGradient id="bgGrad" x1="0" y1="0" x2="1" y2="1">
      <stop offset="0%" stop-color="#1a3a6b"/>
      <stop offset="100%" stop-color="#0a1f44"/>
    </linearGradient>
  </defs>
  <rect width="400" height="300" fill="url(#bgGrad)"/>
  
      <line x1="0" y1="230" x2="400" y2="230" stroke="rgba(255,255,255,0.15)" stroke-width="3" stroke-dasharray="14,10"/>
      <line x1="0" y1="260" x2="400" y2="260" stroke="rgba(255,255,255,0.15)" stroke-width="3" stroke-dasharray="14,10"/>
      <g stroke="rgba(255,255,255,0.7)" stroke-width="8" stroke-linecap="round" fill="none">
        <circle cx="110" cy="140" r="16" fill="rgba(255,255,255,0.7)"/>
        <path d="M110 158 L95 200 M110 158 L122 198 M110 168 L85 178 M110 168 L138 158"/>
      </g>
      <g stroke="#c9a84c" stroke-width="9" stroke-linecap="round" fill="none">
        <circle cx="200" cy="115" r="18" fill="#c9a84c"/>
        <path d="M200 135 L182 185 M200 135 L216 182 M200 148 L172 158 M200 148 L232 135"/>
      </g>
      <g stroke="rgba(255,255,255,0.7)" stroke-width="8" stroke-linecap="round" fill="none">
        <circle cx="290" cy="140" r="16" fill="rgba(255,255,255,0.7)"/>
        <path d="M290 158 L275 200 M290 158 L302 198 M290 168 L265 178 M290 168 L315 158"/>
      </g>
    
</svg>