<svg xmlns="http://www.w3.org/2000/svg" viewBox="0 0 200 200">
  <rect width="200" height="200" fill="#e8e8e8"/>
  <!-- shoulders / suit -->
  <path d="M40 200 C40 150 65 128 100 128 C135 128 160 150 160 200 Z" fill="#9a9a9a"/>
  <!-- shirt collar -->
  <path d="M85 130 L100 150 L115 130 L108 128 L100 138 L92 128 Z" fill="#e8e8e8"/>
  <!-- tie -->
  <path d="M96 138 L104 138 L108 160 L100 172 L92 160 Z" fill="#7a7a7a"/>
  <!-- neck -->
  <rect x="88" y="108" width="24" height="26" rx="8" fill="#b9b9b9"/>
  <!-- head -->
  <ellipse cx="100" cy="82" rx="34" ry="38" fill="#bcbcbc"/>
  <!-- beard -->
  <path d="M70 88 C70 112 84 128 100 128 C116 128 130 112 130 88 C130 104 118 116 100 116 C82 116 70 104 70 88 Z" fill="#8f8f8f"/>
  <!-- short hair -->
  <path d="M64 76 C62 46 78 28 100 28 C122 28 138 46 136 76 C130 58 118 50 100 50 C82 50 70 58 64 76 Z" fill="#8f8f8f"/>
</svg>
